<svg width="20" height="20" viewBox="0 0 20 20" fill="none" xmlns="http://www.w3.org/2000/svg">
<path d="M14.14 0.960012L5.11 3.96001C-0.960005 5.99001 -0.960005 9.30001 5.11 11.32L7.79 12.21L8.68 14.89C10.7 20.96 14.02 20.96 16.04 14.89L19.05 5.87001C20.39 1.82001 18.19 -0.389988 14.14 0.960012ZM14.46 6.34001L10.66 10.16C10.51 10.31 10.32 10.38 10.13 10.38C9.94 10.38 9.75 10.31 9.6 10.16C9.46052 10.0189 9.38229 9.82844 9.38229 9.63001C9.38229 9.43158 9.46052 9.24115 9.6 9.10001L13.4 5.28001C13.69 4.99001 14.17 4.99001 14.46 5.28001C14.75 5.57001 14.75 6.05001 14.46 6.34001Z" fill="#615EF0"/>
</svg>
